<?xml version="1.0"?>
<svg xmlns="http://www.w3.org/2000/svg" xmlns:xlink="http://www.w3.org/1999/xlink" version="1.1" viewBox="0 0 224 224" width="32px" height="32px"><g fill="none" fill-rule="nonzero" stroke="none" stroke-width="1" stroke-linecap="butt" stroke-linejoin="miter" stroke-miterlimit="10" stroke-dasharray="" stroke-dashoffset="0" font-family="none" font-weight="none" font-size="none" text-anchor="none" style="mix-blend-mode: normal"><path d="M0,224v-224h224v224z" fill="none"/><g fill="#ff7f50"><path d="M46.57552,37.24219c-3.79795,0.001 -7.21662,2.30305 -8.64576,5.82185c-1.42914,3.5188 -0.58376,7.55267 2.13794,10.20158l58.73438,58.73438l-58.73438,58.73438c-2.43822,2.34096 -3.42039,5.81715 -2.56772,9.08793c0.85267,3.27078 3.40694,5.82504 6.67771,6.67771c3.27078,0.85267 6.74697,-0.1295 9.08793,-2.56772l58.73438,-58.73438l58.73438,58.73438c2.34095,2.43825 5.81716,3.42044 9.08795,2.56778c3.27079,-0.85266 5.82507,-3.40694 6.67774,-6.67774c0.85266,-3.27079 -0.12953,-6.747 -2.56778,-9.08795l-58.73438,-58.73438l58.73438,-58.73438c2.76043,-2.68325 3.59043,-6.78595 2.09006,-10.33119c-1.50037,-3.54524 -5.02332,-5.80573 -8.8713,-5.69225c-2.42479,0.07225 -4.7262,1.08566 -6.41667,2.82552l-58.73438,58.73438l-58.73438,-58.73438c-1.7572,-1.80631 -4.17009,-2.82537 -6.6901,-2.82552z"/></g></g></svg>
